<svg width="269" height="85" viewBox="0 0 269 85" fill="none" xmlns="http://www.w3.org/2000/svg">
<path d="M245.369 69.1046L244.313 41.3383C243.58 42.2517 243.142 43.1539 242.999 44.0449L244.115 73.4029L230.721 75.1518L221.71 71.0666L219.159 3.95005L233.437 2.1675L242.448 6.25272L242.945 19.34C243.122 19.3333 243.299 19.3266 243.476 19.3198C243.651 19.2542 243.826 19.218 244.003 19.2112C244.298 19.2 244.563 19.19 244.799 19.181C245.092 19.1108 245.385 19.0701 245.68 19.0589C248.333 18.9581 250.914 19.3027 253.424 20.0929C255.99 20.8219 258.304 21.9146 260.367 23.3712C262.427 24.7688 264.087 26.5063 265.347 28.5837C266.605 30.6022 267.28 32.8495 267.375 35.3254L268.743 71.3155L254.376 73.1014L245.369 69.1046ZM257.479 31.2738C257.325 27.2061 256.121 24.2705 253.868 22.467C251.615 20.6635 248.897 19.8222 245.714 19.9432C245.478 19.9522 245.212 19.9623 244.918 19.9735C244.682 19.9824 244.418 20.022 244.125 20.0922C241.363 20.4333 239.099 21.4344 237.332 23.0956C235.622 24.6956 234.481 26.5101 233.908 28.5391L233.555 28.5525L232.59 3.17381L220.073 4.71229L222.561 70.1487L235.077 68.6102L233.985 39.8713C234.224 38.3863 234.881 37.033 235.956 35.8114C237.031 34.5897 238.392 33.8886 240.038 33.708L240.569 33.6878C241.807 33.6407 242.855 34.0436 243.714 34.8965C244.571 35.6905 245.035 37.0307 245.107 38.9172L246.216 68.0983L258.817 66.468L257.479 31.2738Z" fill="url(#paint0_linear_41_485)"/>
<path d="M170.452 73.0152L170.025 61.7849L183.152 41.3609L179.537 41.764L170.526 37.6788L170.018 24.3262L204.214 20.0154L213.048 24.1073L213.491 35.7798L200.793 55.8332L206.082 55.1894L215.093 59.2746L215.601 72.6272L179.375 77.1038L170.452 73.0152ZM186.464 58.5919L203.675 31.4595L203.278 21.0251L170.933 25.0884L171.373 36.6724L188.471 34.517L170.831 62.0199L171.214 72.1006L205.675 67.7797L205.235 56.1957L186.464 58.5919Z" fill="url(#paint1_linear_41_485)"/>
<path d="M147.536 75.746C146.91 76.3601 145.899 76.9594 144.504 77.5438C143.169 78.1259 141.707 78.5061 140.12 78.6845C139.828 78.7547 139.504 78.7965 139.151 78.8099C138.797 78.8234 138.473 78.8357 138.178 78.8469C135.82 78.9366 133.391 78.7042 130.89 78.1499C128.451 77.6522 126.173 76.7647 124.059 75.4872C121.946 74.2687 120.201 72.623 118.823 70.55C117.502 68.4159 116.785 65.8455 116.67 62.839L115.296 26.6721L129.662 24.8862L137.769 28.4745L138.888 57.9209C139.172 57.6149 139.43 57.428 139.664 57.36C139.954 57.2309 140.209 56.9556 140.429 56.5339L139.212 24.5231L153.491 22.7406L162.501 26.8258L164.35 75.461L150.776 77.1282L147.536 75.746ZM140.127 25.2854L141.32 56.6772C140.773 57.8197 140.012 58.7637 139.037 59.5092C138.118 60.1935 136.837 60.6555 135.193 60.8951L134.751 60.9119C133.513 60.959 132.407 60.5878 131.432 59.7983C130.516 59.0066 130.021 57.6085 129.944 55.6042L128.815 25.8925L116.21 27.4343L117.555 62.8054C117.709 66.873 118.941 69.7781 121.251 71.5204C123.561 73.2627 126.366 74.0712 129.667 73.9457L131.348 73.8818C134.166 73.4795 136.549 72.5033 138.498 70.9533C140.503 69.3421 141.7 67.437 142.088 65.2378L142.357 65.3162L142.616 72.1251L154.425 70.6135L152.643 23.7469L140.127 25.2854Z" fill="url(#paint2_linear_41_485)"/>
<path d="M85.5253 75.1809L84.4698 47.4147C83.737 48.3281 83.299 49.2303 83.1558 50.1213L84.2718 79.4792L70.8779 81.2282L61.867 77.143L59.3156 10.0264L73.5938 8.24385L82.6047 12.3291L83.1022 25.4164C83.279 25.4096 83.4559 25.4029 83.6327 25.3962C83.8074 25.3305 83.9831 25.2943 84.1599 25.2876C84.4547 25.2764 84.72 25.2663 84.9558 25.2573C85.2483 25.1872 85.5419 25.1465 85.8367 25.1353C88.4895 25.0344 91.0707 25.3791 93.5803 26.1693C96.1466 26.8982 98.4611 27.991 100.524 29.4475C102.584 30.8451 104.244 32.5826 105.504 34.6601C106.761 36.6786 107.437 38.9258 107.531 41.4018L108.899 77.3918L94.5328 79.1777L85.5253 75.1809ZM97.6361 37.3502C97.4815 33.2825 96.2777 30.3469 94.0248 28.5434C91.7719 26.7398 89.0537 25.8986 85.8703 26.0196C85.6345 26.0285 85.3692 26.0386 85.0745 26.0498C84.8387 26.0588 84.5745 26.0984 84.282 26.1685C81.5202 26.5096 79.2558 27.5108 77.4888 29.172C75.7786 30.7719 74.6373 32.5864 74.065 34.6154L73.7113 34.6289L72.7465 9.25017L60.2301 10.7886L62.7177 76.2251L75.2341 74.6866L74.1416 45.9476C74.3803 44.4626 75.0373 43.1093 76.1126 41.8877C77.1878 40.6661 78.5485 39.965 80.1947 39.7843L80.7253 39.7641C81.9633 39.7171 83.0117 40.12 83.8707 40.9729C84.7274 41.7668 85.1916 43.1071 85.2633 44.9935L86.3726 74.1746L98.974 72.5444L97.6361 37.3502Z" fill="url(#paint3_linear_41_485)"/>
<path d="M2.86558 79.6516L2.36471 66.4758L21.42 29.6209L11.8116 30.7831L2.80078 26.6979L2.24949 12.1958L42.6999 7.0273L51.5339 11.1192L51.9978 23.3223L32.7075 60.9832L45.3123 59.4413L54.3232 63.5266L54.8879 78.3824L11.8764 83.7368L2.86558 79.6516ZM19.2588 63.6197L42.1844 19.0904L41.7642 8.03697L3.16402 12.958L3.64808 25.6916L25.8579 22.8991L3.25907 66.7075L3.71624 78.7337L44.9625 73.5349L44.465 60.4477L19.2588 63.6197Z" fill="url(#paint4_linear_41_485)"/>
<defs>
<linearGradient id="paint0_linear_41_485" x1="-26.3741" y1="40.8494" x2="284.589" y2="59.3926" gradientUnits="userSpaceOnUse">
<stop stop-color="white"/>
<stop offset="1" stop-color="white" stop-opacity="0.66"/>
</linearGradient>
<linearGradient id="paint1_linear_41_485" x1="-26.374" y1="40.8494" x2="284.59" y2="59.3926" gradientUnits="userSpaceOnUse">
<stop stop-color="white"/>
<stop offset="1" stop-color="white" stop-opacity="0.66"/>
</linearGradient>
<linearGradient id="paint2_linear_41_485" x1="-26.3741" y1="40.8493" x2="284.589" y2="59.3926" gradientUnits="userSpaceOnUse">
<stop stop-color="white"/>
<stop offset="1" stop-color="white" stop-opacity="0.66"/>
</linearGradient>
<linearGradient id="paint3_linear_41_485" x1="-26.3741" y1="40.8493" x2="284.589" y2="59.3926" gradientUnits="userSpaceOnUse">
<stop stop-color="white"/>
<stop offset="1" stop-color="white" stop-opacity="0.66"/>
</linearGradient>
<linearGradient id="paint4_linear_41_485" x1="-26.3741" y1="40.8494" x2="284.589" y2="59.3926" gradientUnits="userSpaceOnUse">
<stop stop-color="white"/>
<stop offset="1" stop-color="white" stop-opacity="0.66"/>
</linearGradient>
</defs>
</svg>
